<mxfile host="drawio-plugin" modified="2023-05-31T21:08:46.070Z" agent="5.0 (Windows NT 6.2; Win64; x64) AppleWebKit/537.36 (KHTML, like Gecko) Chrome/104.0.5112.102 Safari/537.36" etag="1N5X039tfV_2hJTgNeIa" version="20.5.3" type="embed"><diagram id="x0iD5oa10G_bIRBr6YR8" name="Page-1"><mxGraphModel dx="1212" dy="1043" grid="1" gridSize="20" guides="1" tooltips="1" connect="1" arrows="1" fold="1" page="0" pageScale="1" pageWidth="850" pageHeight="1100" math="0" shadow="0"><root><mxCell id="0"/><mxCell id="1" parent="0"/><mxCell id="11" style="edgeStyle=orthogonalEdgeStyle;rounded=1;orthogonalLoop=1;jettySize=auto;html=1;curved=1;" parent="1" source="3" target="6" edge="1"><mxGeometry relative="1" as="geometry"/></mxCell><mxCell id="13" style="edgeStyle=orthogonalEdgeStyle;rounded=1;orthogonalLoop=1;jettySize=auto;html=1;entryX=0;entryY=0.5;entryDx=0;entryDy=0;curved=1;" parent="1" source="3" target="12" edge="1"><mxGeometry relative="1" as="geometry"/></mxCell><mxCell id="14" style="edgeStyle=orthogonalEdgeStyle;rounded=1;orthogonalLoop=1;jettySize=auto;html=1;entryX=0;entryY=0.5;entryDx=0;entryDy=0;curved=1;" parent="1" source="3" target="5" edge="1"><mxGeometry relative="1" as="geometry"/></mxCell><mxCell id="39" style="edgeStyle=orthogonalEdgeStyle;rounded=1;orthogonalLoop=1;jettySize=auto;html=1;entryX=0;entryY=0.5;entryDx=0;entryDy=0;curved=1;" parent="1" source="3" target="38" edge="1"><mxGeometry relative="1" as="geometry"/></mxCell><mxCell id="3" value="Admin" style="shape=umlActor;verticalLabelPosition=bottom;verticalAlign=top;html=1;outlineConnect=0;rounded=1;" parent="1" vertex="1"><mxGeometry x="380" y="140" width="30" height="60" as="geometry"/></mxCell><mxCell id="4" value="Sign in" style="ellipse;whiteSpace=wrap;html=1;rounded=1;" parent="1" vertex="1"><mxGeometry x="40" y="280" width="120" height="80" as="geometry"/></mxCell><mxCell id="5" value="Create Account" style="ellipse;whiteSpace=wrap;html=1;rounded=1;" parent="1" vertex="1"><mxGeometry x="500" y="20" width="120" height="80" as="geometry"/></mxCell><mxCell id="6" value="View Account List" style="ellipse;whiteSpace=wrap;html=1;rounded=1;" parent="1" vertex="1"><mxGeometry x="500" y="130" width="120" height="80" as="geometry"/></mxCell><mxCell id="9" style="edgeStyle=orthogonalEdgeStyle;rounded=1;orthogonalLoop=1;jettySize=auto;html=1;curved=1;" parent="1" source="7" target="4" edge="1"><mxGeometry relative="1" as="geometry"/></mxCell><mxCell id="7" value="Everyone" style="shape=umlActor;verticalLabelPosition=bottom;verticalAlign=top;html=1;outlineConnect=0;rounded=1;" parent="1" vertex="1"><mxGeometry x="-60" y="290" width="30" height="60" as="geometry"/></mxCell><mxCell id="12" value="View Account Detail" style="ellipse;whiteSpace=wrap;html=1;rounded=1;" parent="1" vertex="1"><mxGeometry x="500" y="245" width="120" height="80" as="geometry"/></mxCell><mxCell id="15" style="edgeStyle=orthogonalEdgeStyle;rounded=1;orthogonalLoop=1;jettySize=auto;html=1;curved=1;" parent="1" source="18" target="20" edge="1"><mxGeometry relative="1" as="geometry"/></mxCell><mxCell id="16" style="edgeStyle=orthogonalEdgeStyle;rounded=1;orthogonalLoop=1;jettySize=auto;html=1;entryX=0;entryY=0.5;entryDx=0;entryDy=0;curved=1;" parent="1" source="18" target="21" edge="1"><mxGeometry relative="1" as="geometry"/></mxCell><mxCell id="17" style="edgeStyle=orthogonalEdgeStyle;rounded=1;orthogonalLoop=1;jettySize=auto;html=1;entryX=0;entryY=0.5;entryDx=0;entryDy=0;curved=1;" parent="1" source="18" target="19" edge="1"><mxGeometry relative="1" as="geometry"/></mxCell><mxCell id="24" style="edgeStyle=orthogonalEdgeStyle;rounded=1;orthogonalLoop=1;jettySize=auto;html=1;curved=1;" parent="1" source="18" target="22" edge="1"><mxGeometry relative="1" as="geometry"/></mxCell><mxCell id="26" style="edgeStyle=orthogonalEdgeStyle;rounded=1;orthogonalLoop=1;jettySize=auto;html=1;entryX=0.5;entryY=1;entryDx=0;entryDy=0;curved=1;" parent="1" source="18" target="25" edge="1"><mxGeometry relative="1" as="geometry"/></mxCell><mxCell id="18" value="Planner" style="shape=umlActor;verticalLabelPosition=bottom;verticalAlign=top;html=1;outlineConnect=0;rounded=1;" parent="1" vertex="1"><mxGeometry x="405" y="560" width="30" height="60" as="geometry"/></mxCell><mxCell id="19" value="View Contract List" style="ellipse;whiteSpace=wrap;html=1;rounded=1;" parent="1" vertex="1"><mxGeometry x="525" y="440" width="120" height="80" as="geometry"/></mxCell><mxCell id="28" value="" style="edgeStyle=orthogonalEdgeStyle;curved=1;rounded=1;orthogonalLoop=1;jettySize=auto;html=1;entryX=0;entryY=0.5;entryDx=0;entryDy=0;" parent="1" source="20" target="27" edge="1"><mxGeometry relative="1" as="geometry"/></mxCell><mxCell id="31" style="edgeStyle=orthogonalEdgeStyle;curved=1;rounded=1;orthogonalLoop=1;jettySize=auto;html=1;" parent="1" source="20" target="30" edge="1"><mxGeometry relative="1" as="geometry"/></mxCell><mxCell id="37" style="edgeStyle=orthogonalEdgeStyle;curved=1;rounded=1;orthogonalLoop=1;jettySize=auto;html=1;entryX=0.003;entryY=0.575;entryDx=0;entryDy=0;entryPerimeter=0;" parent="1" source="20" target="36" edge="1"><mxGeometry relative="1" as="geometry"/></mxCell><mxCell id="47" style="edgeStyle=orthogonalEdgeStyle;rounded=1;orthogonalLoop=1;jettySize=auto;html=1;curved=1;entryX=0;entryY=0.5;entryDx=0;entryDy=0;" edge="1" parent="1" source="20" target="46"><mxGeometry relative="1" as="geometry"/></mxCell><mxCell id="20" value="Manage With Draw Request" style="ellipse;whiteSpace=wrap;html=1;rounded=1;" parent="1" vertex="1"><mxGeometry x="525" y="550" width="120" height="80" as="geometry"/></mxCell><mxCell id="21" value="View Contract Detail" style="ellipse;whiteSpace=wrap;html=1;rounded=1;" parent="1" vertex="1"><mxGeometry x="525" y="660" width="120" height="80" as="geometry"/></mxCell><mxCell id="22" value="Search" style="ellipse;whiteSpace=wrap;html=1;rounded=1;" parent="1" vertex="1"><mxGeometry x="360" y="720" width="120" height="80" as="geometry"/></mxCell><mxCell id="25" value="View Supplier detail" style="ellipse;whiteSpace=wrap;html=1;rounded=1;" parent="1" vertex="1"><mxGeometry x="360" y="400" width="120" height="80" as="geometry"/></mxCell><mxCell id="27" value="Create" style="ellipse;whiteSpace=wrap;html=1;rounded=1;" parent="1" vertex="1"><mxGeometry x="720" y="440" width="120" height="80" as="geometry"/></mxCell><mxCell id="30" value="Cancel" style="ellipse;whiteSpace=wrap;html=1;rounded=1;" parent="1" vertex="1"><mxGeometry x="720" y="550" width="120" height="80" as="geometry"/></mxCell><mxCell id="36" value="View detal" style="ellipse;whiteSpace=wrap;html=1;rounded=1;" parent="1" vertex="1"><mxGeometry x="720" y="660" width="120" height="80" as="geometry"/></mxCell><mxCell id="38" value="Disable Account" style="ellipse;whiteSpace=wrap;html=1;rounded=1;" parent="1" vertex="1"><mxGeometry x="500" y="-80" width="120" height="80" as="geometry"/></mxCell><mxCell id="50" style="edgeStyle=orthogonalEdgeStyle;curved=1;rounded=1;orthogonalLoop=1;jettySize=auto;html=1;entryX=0;entryY=0.5;entryDx=0;entryDy=0;" edge="1" parent="1" source="40" target="49"><mxGeometry relative="1" as="geometry"/></mxCell><mxCell id="54" style="edgeStyle=orthogonalEdgeStyle;curved=1;rounded=1;orthogonalLoop=1;jettySize=auto;html=1;entryX=0;entryY=0.5;entryDx=0;entryDy=0;" edge="1" parent="1" source="40" target="53"><mxGeometry relative="1" as="geometry"/></mxCell><mxCell id="56" style="edgeStyle=orthogonalEdgeStyle;curved=1;rounded=1;orthogonalLoop=1;jettySize=auto;html=1;entryX=0;entryY=0.5;entryDx=0;entryDy=0;" edge="1" parent="1" source="40" target="55"><mxGeometry relative="1" as="geometry"/></mxCell><mxCell id="59" style="edgeStyle=orthogonalEdgeStyle;curved=1;rounded=1;orthogonalLoop=1;jettySize=auto;html=1;" edge="1" parent="1" source="40" target="58"><mxGeometry relative="1" as="geometry"/></mxCell><mxCell id="40" value="Supplier" style="shape=umlActor;verticalLabelPosition=bottom;verticalAlign=top;html=1;outlineConnect=0;rounded=1;" vertex="1" parent="1"><mxGeometry x="410" y="1160" width="30" height="60" as="geometry"/></mxCell><mxCell id="46" value="View request list" style="ellipse;whiteSpace=wrap;html=1;rounded=1;" vertex="1" parent="1"><mxGeometry x="720" y="325" width="120" height="80" as="geometry"/></mxCell><mxCell id="49" value="view my contract list within with draw list" style="ellipse;whiteSpace=wrap;html=1;rounded=1;" vertex="1" parent="1"><mxGeometry x="580" y="1150" width="120" height="80" as="geometry"/></mxCell><mxCell id="53" value="recieve noti when have new with draw" style="ellipse;whiteSpace=wrap;html=1;rounded=1;" vertex="1" parent="1"><mxGeometry x="580" y="1020" width="120" height="80" as="geometry"/></mxCell><mxCell id="55" value="Change with draw status to ready" style="ellipse;whiteSpace=wrap;html=1;rounded=1;" vertex="1" parent="1"><mxGeometry x="580" y="1280" width="120" height="80" as="geometry"/></mxCell><mxCell id="58" value="see withdaw detail" style="ellipse;whiteSpace=wrap;html=1;rounded=1;" vertex="1" parent="1"><mxGeometry x="365" y="1000" width="120" height="80" as="geometry"/></mxCell><mxCell id="65" style="edgeStyle=orthogonalEdgeStyle;curved=1;rounded=1;orthogonalLoop=1;jettySize=auto;html=1;entryX=0;entryY=0.5;entryDx=0;entryDy=0;" edge="1" parent="1" source="60" target="64"><mxGeometry relative="1" as="geometry"/></mxCell><mxCell id="66" style="edgeStyle=orthogonalEdgeStyle;curved=1;rounded=1;orthogonalLoop=1;jettySize=auto;html=1;entryX=0;entryY=0.5;entryDx=0;entryDy=0;" edge="1" parent="1" source="60" target="63"><mxGeometry relative="1" as="geometry"/></mxCell><mxCell id="68" style="edgeStyle=orthogonalEdgeStyle;curved=1;rounded=1;orthogonalLoop=1;jettySize=auto;html=1;entryX=0;entryY=0.5;entryDx=0;entryDy=0;" edge="1" parent="1" source="60" target="67"><mxGeometry relative="1" as="geometry"/></mxCell><mxCell id="60" value="contractor" style="shape=umlActor;verticalLabelPosition=bottom;verticalAlign=top;html=1;outlineConnect=0;rounded=1;" vertex="1" parent="1"><mxGeometry x="410" y="1700" width="30" height="60" as="geometry"/></mxCell><mxCell id="63" value="view withdraw request" style="ellipse;whiteSpace=wrap;html=1;rounded=1;" vertex="1" parent="1"><mxGeometry x="600" y="1690" width="120" height="80" as="geometry"/></mxCell><mxCell id="64" value="recieve noti" style="ellipse;whiteSpace=wrap;html=1;rounded=1;" vertex="1" parent="1"><mxGeometry x="600" y="1560" width="120" height="80" as="geometry"/></mxCell><mxCell id="67" value="change with draw status to collected" style="ellipse;whiteSpace=wrap;html=1;rounded=1;" vertex="1" parent="1"><mxGeometry x="600" y="1820" width="120" height="80" as="geometry"/></mxCell></root></mxGraphModel></diagram></mxfile>